<svg xmlns="http://www.w3.org/2000/svg" xmlns:xlink="http://www.w3.org/1999/xlink" viewBox="0 0 1828.53 322.5"><defs><style>.cls-1,.cls-12,.cls-25,.cls-46{fill:none;}.cls-2{clip-path:url(#clip-path);}.cls-3{clip-path:url(#clip-path-2);}.cls-4{opacity:0.9;}.cls-5{clip-path:url(#clip-path-3);}.cls-23,.cls-24,.cls-26,.cls-6{fill:#eb5c63;}.cls-11,.cls-7{fill:#202020;}.cls-10,.cls-13,.cls-14,.cls-15,.cls-20,.cls-21,.cls-29,.cls-36,.cls-41,.cls-44,.cls-45,.cls-47,.cls-48,.cls-49,.cls-50,.cls-8,.cls-9{fill:#fff;}.cls-10,.cls-11,.cls-21,.cls-9{font-size:19.22px;}.cls-11,.cls-14,.cls-36,.cls-9{font-family:KohinoorDevanagari-Light, Kohinoor Devanagari;}.cls-11,.cls-14,.cls-36,.cls-48,.cls-50,.cls-9{font-weight:300;}.cls-10,.cls-13,.cls-15,.cls-20,.cls-21,.cls-29{font-family:KohinoorDevanagari-Bold, Kohinoor Devanagari;}.cls-10,.cls-13,.cls-15,.cls-20,.cls-21,.cls-24,.cls-26,.cls-29,.cls-41,.cls-44,.cls-47,.cls-49{font-weight:700;}.cls-12,.cls-25{stroke:#fff;}.cls-12,.cls-25,.cls-46{stroke-miterlimit:10;}.cls-12{stroke-width:1.6px;}.cls-13{font-size:20.45px;}.cls-14{font-size:14.64px;}.cls-15{font-size:35.04px;}.cls-16{letter-spacing:-0.01em;}.cls-17{letter-spacing:-0.01em;}.cls-18{letter-spacing:0em;}.cls-19{letter-spacing:-0.01em;}.cls-20{font-size:59.1px;}.cls-21{letter-spacing:-0.03em;}.cls-22{letter-spacing:0em;}.cls-23,.cls-26{font-size:12.62px;}.cls-23,.cls-45{font-family:KohinoorBangla-Regular, Kohinoor Bangla;}.cls-24{font-size:10.1px;}.cls-24,.cls-26,.cls-41,.cls-44,.cls-47,.cls-49{font-family:KohinoorBangla-Bold, Kohinoor Bangla;}.cls-25{stroke-width:0.8px;}.cls-27{opacity:0.64;}.cls-28{clip-path:url(#clip-path-6);}.cls-29{font-size:16.41px;}.cls-30{letter-spacing:-0.02em;}.cls-31{letter-spacing:-0.01em;}.cls-32{letter-spacing:0.02em;}.cls-33{clip-path:url(#clip-path-9);}.cls-34{fill:#fffefe;}.cls-35{clip-path:url(#clip-path-11);}.cls-36{font-size:9.77px;}.cls-37{letter-spacing:-0.01em;}.cls-38{letter-spacing:0em;}.cls-39{letter-spacing:-0.01em;}.cls-40{letter-spacing:-0.02em;}.cls-41{font-size:24.3px;}.cls-42{letter-spacing:-0.02em;}.cls-43{letter-spacing:0em;}.cls-44,.cls-45{font-size:8.34px;}.cls-46{stroke:#eb5c63;stroke-width:0.95px;}.cls-47{font-size:21.44px;}.cls-48{font-size:7.15px;}.cls-48,.cls-50{font-family:KohinoorBangla-Light, Kohinoor Bangla;}.cls-49{font-size:17.94px;}.cls-50{font-size:5.98px;}</style><clipPath id="clip-path" transform="translate(-32.32 -30.56)"><rect class="cls-1" x="14.42" y="11.21" width="1853.83" height="350.65"/></clipPath><clipPath id="clip-path-2" transform="translate(-32.32 -30.56)"><rect class="cls-1" x="14.42" y="11.21" width="1853.84" height="350.65"/></clipPath><clipPath id="clip-path-3" transform="translate(-32.32 -30.56)"><rect class="cls-1" width="1882.67" height="363.47"/></clipPath><clipPath id="clip-path-6" transform="translate(-32.32 -30.56)"><rect class="cls-1" x="897.5" y="161.18" width="149.65" height="149.65"/></clipPath><clipPath id="clip-path-9" transform="translate(-32.32 -30.56)"><rect class="cls-1" x="1074.62" y="187.94" width="29.8" height="10.94"/></clipPath><clipPath id="clip-path-11" transform="translate(-32.32 -30.56)"><rect class="cls-1" x="1074.62" y="253.2" width="29.8" height="10.94"/></clipPath></defs><title>Asset 1</title><g id="Layer_2" data-name="Layer 2"><g id="Layer_1-2" data-name="Layer 1"><g class="cls-2"><g class="cls-3"><g class="cls-4"><g class="cls-5"><g class="cls-3"><path class="cls-6" d="M1822.65,114.48c2.11,5.55,4.26,11.09,6.32,16.67a4.57,4.57,0,0,1,.2,3.6,4.67,4.67,0,0,1-3.05,2.48c-11.8,4.38-23.43,9.26-35.38,13.26a3.59,3.59,0,0,1-2.73-.08l-69.18-31a1.84,1.84,0,0,1-1-2.51q11.9-26.57,23.8-53.12a1.83,1.83,0,0,1,2.61-1l69.18,31a2.82,2.82,0,0,1,1.22,1,15,15,0,0,1,1.7,3.31c2.15,5.45,4.21,10.94,6.3,16.42" transform="translate(-32.32 -30.56)"/><path class="cls-7" d="M1813.47,124.2a4.68,4.68,0,0,1-2.6,6,4.63,4.63,0,1,1-3.25-8.67c2.63-.87,5.41.82,5.85,2.64" transform="translate(-32.32 -30.56)"/><polygon class="cls-6" points="1402.3 48.25 1412.45 65.77 1413.93 70.71 1448.24 60.43 1446.83 55.72 1445.4 35.34 1434.61 45.35 1422.42 35.68 1417.76 49.93 1402.3 48.25"/><path class="cls-6" d="M1456.09,63.45a2.08,2.08,0,1,1-2.59-1.4,2.09,2.09,0,0,1,2.59,1.4" transform="translate(-32.32 -30.56)"/><path class="cls-6" d="M1434.74,77a2.09,2.09,0,1,1-2.6-1.4,2.08,2.08,0,0,1,2.6,1.4" transform="translate(-32.32 -30.56)"/><path class="cls-6" d="M1480.21,63a2.09,2.09,0,1,1-2.6-1.4,2.09,2.09,0,0,1,2.6,1.4" transform="translate(-32.32 -30.56)"/><rect class="cls-6" x="0.8" y="93.1" width="271.02" height="57.82"/><rect class="cls-8" x="0.8" y="201.14" width="83.15" height="57.82"/></g><text class="cls-9" transform="translate(15.26 81.83)">Airbnb</text><text class="cls-10" transform="translate(0.8 21.18)">Verschil in Airbnb en Hotels</text><text class="cls-9" transform="translate(22.25 130.03)">15.496</text><text class="cls-11" transform="translate(22.25 236.04)">413</text><text class="cls-9" transform="translate(15.26 193.07)">Hotels</text><polyline class="cls-12" points="0.8 41.13 0.8 277.82 283.87 277.82"/><rect class="cls-6" x="500.43" y="142.41" width="103.66" height="27.18" transform="translate(-50.61 63.77) rotate(-9.6)"/><text class="cls-13" transform="matrix(1.02, -0.17, 0.17, 0.99, 472.98, 140.89)">REALITEIT</text><text class="cls-14" transform="translate(325.75 242.72)">max </text><text class="cls-15" transform="translate(357.13 242.72)">4</text><text class="cls-14" transform="translate(377.39 242.72)"><tspan xml:space="preserve"> pe</tspan><tspan class="cls-16" x="20.12" y="0">r</tspan><tspan x="25.04" y="0">sonen </tspan></text><text class="cls-14" transform="translate(325.76 260.29)">per accomm<tspan class="cls-16" x="79.44" y="0">o</tspan><tspan x="87.36" y="0">datie</tspan></text><text class="cls-15" transform="translate(325.75 164.9)">30</text><text class="cls-14" transform="translate(325.75 182.31)">per jaar be<tspan class="cls-17" x="69.83" y="0">s</tspan><tspan class="cls-18" x="76.55" y="0">chikbaar</tspan></text><text class="cls-14" transform="translate(368.93 164.89)">nachten</text><text class="cls-15" transform="translate(374.34 67.31)">168</text><text class="cls-14" transform="translate(331.16 91.26)">Gemiddelde prijs </text><text class="cls-14" transform="translate(331.16 108.83)"><tspan class="cls-19">v</tspan><tspan x="6.66" y="0">oor een Airbnb</tspan></text><text class="cls-20" transform="translate(325.75 69.56) scale(1.24 1)">€</text><text class="cls-15" transform="translate(491.56 236.02)">1.299</text><text class="cls-14" transform="translate(575.8 236.02)"> </text><text class="cls-14" transform="translate(491.56 253.59)">accomm<tspan class="cls-17" x="54.26" y="0">o</tspan><tspan x="62.19" y="0">daties zijn </tspan></text><text class="cls-14" transform="translate(491.56 271.16)"><tspan class="cls-17">v</tspan><tspan x="6.68" y="0">oor meer dan 4 </tspan></text><text class="cls-15" transform="translate(491.56 164.89)">57</text><text class="cls-14" transform="translate(491.56 182.31)">per jaar be<tspan class="cls-17" x="69.83" y="0">s</tspan><tspan class="cls-18" x="76.55" y="0">chikbaar</tspan></text><text class="cls-14" transform="translate(534.74 164.89)">nachten</text><text class="cls-15" transform="translate(670.68 253.8)">14</text><text class="cls-14" transform="translate(707.69 253.8)"><tspan xml:space="preserve"> hotels</tspan></text><text class="cls-14" transform="translate(670.68 271.37)"><tspan xml:space="preserve"> met 5 sterren </tspan></text><text class="cls-15" transform="translate(670.68 182.31)">HELE</text><text class="cls-14" transform="translate(670.68 199.73)"><tspan xml:space="preserve"> jaar be</tspan><tspan class="cls-17" x="48.91" y="0">s</tspan><tspan x="55.63" y="0">chikbaar</tspan></text><text class="cls-15" transform="translate(719.26 78.38)">142</text><text class="cls-14" transform="translate(676.08 102.34)">Gemiddelde prijs </text><text class="cls-14" transform="translate(676.08 119.91)"><tspan class="cls-17">v</tspan><tspan x="6.68" y="0">oor een hotelkamer</tspan></text><text class="cls-20" transform="translate(670.68 80.64) scale(1.24 1)">€</text><text class="cls-21" transform="translate(1177.1 72.58)">T<tspan class="cls-22" x="9.19" y="0">op 3 hosts</tspan></text><text class="cls-23" transform="translate(1248.46 104.62)"><tspan xml:space="preserve">  </tspan></text><text class="cls-24" transform="translate(1200.49 101.54)">Ma</text><text class="cls-24" transform="translate(1215.09 101.54)">r</text><text class="cls-24" transform="translate(1219.49 101.54)">tijn</text><text class="cls-15" transform="translate(1200.49 132.71)">200 </text><text class="cls-14" transform="translate(1267.38 132.71)">Accomm<tspan class="cls-17" x="54.72" y="0">o</tspan><tspan x="62.64" y="0">daties</tspan></text><polygon class="cls-25" points="1177.67 98.76 1179.66 98.76 1179.66 97.13 1181.65 97.13 1181.65 95.33 1183.36 95.33 1183.36 93.25 1186.6 93.25 1186.6 95.26 1188.39 95.23 1188.39 97.2 1190.18 97.17 1190.18 99.03 1192.05 99.03 1192.08 132.64 1186.11 132.64 1177.67 132.64 1177.67 98.76"/><polygon class="cls-25" points="1186.16 125.27 1189.89 125.27 1189.89 132.64 1186.11 132.64 1186.16 125.27"/><rect class="cls-25" x="1179.9" y="114.97" width="4.05" height="7.67"/><rect class="cls-25" x="1179.9" y="104.19" width="4.05" height="7.67"/><rect class="cls-25" x="1185.97" y="114.97" width="4.05" height="7.67"/><rect class="cls-25" x="1185.97" y="104.19" width="4.05" height="7.67"/><text class="cls-15" transform="translate(1200.49 204.35)">106</text><text class="cls-14" transform="translate(1267.38 204.35)">Accomm<tspan class="cls-17" x="54.72" y="0">o</tspan><tspan x="62.64" y="0">daties</tspan></text><text class="cls-24" transform="translate(1200.49 170.75)">Michiel and Jane</text><polygon class="cls-25" points="1177.67 169.64 1179.66 169.64 1179.66 168.01 1181.65 168.01 1181.65 166.21 1183.36 166.21 1183.36 164.13 1186.6 164.13 1186.6 166.14 1188.39 166.12 1188.39 168.08 1190.18 168.05 1190.18 169.92 1192.05 169.92 1192.08 203.52 1186.11 203.52 1177.67 203.52 1177.67 169.64"/><polygon class="cls-25" points="1186.16 196.15 1189.89 196.15 1189.89 203.52 1186.11 203.52 1186.16 196.15"/><rect class="cls-25" x="1179.9" y="185.86" width="4.05" height="7.67"/><rect class="cls-25" x="1179.9" y="175.07" width="4.05" height="7.67"/><rect class="cls-25" x="1185.97" y="185.86" width="4.05" height="7.67"/><rect class="cls-25" x="1185.97" y="175.07" width="4.05" height="7.67"/><text class="cls-15" transform="translate(1200.49 266.15)">81</text><text class="cls-14" transform="translate(1240.15 266.15)">Accomm<tspan class="cls-17" x="54.72" y="0">o</tspan><tspan x="62.64" y="0">daties</tspan></text><text class="cls-24" transform="translate(1200.8 234.53)">Rated</text><text class="cls-26" transform="translate(1214.25 249.67)"> </text><polygon class="cls-25" points="1177.67 233.46 1179.66 233.46 1179.66 231.84 1181.65 231.84 1181.65 230.03 1183.36 230.03 1183.36 227.95 1186.6 227.95 1186.6 229.96 1188.39 229.94 1188.39 231.9 1190.18 231.88 1190.18 233.74 1192.05 233.74 1192.08 267.34 1186.11 267.34 1177.67 267.34 1177.67 233.46"/><polygon class="cls-25" points="1186.16 259.98 1189.89 259.98 1189.89 267.34 1186.11 267.34 1186.16 259.98"/><rect class="cls-25" x="1179.9" y="249.68" width="4.05" height="7.67"/><rect class="cls-25" x="1179.9" y="238.89" width="4.05" height="7.67"/><rect class="cls-25" x="1185.97" y="249.68" width="4.05" height="7.67"/><rect class="cls-25" x="1185.97" y="238.89" width="4.05" height="7.67"/><line class="cls-12" x1="640.69" y1="122.01" x2="640.69" y2="275.7"/><g class="cls-3"><path class="cls-8" d="M1047.15,236a74.83,74.83,0,1,1-74.83-74.83A74.82,74.82,0,0,1,1047.15,236" transform="translate(-32.32 -30.56)"/><g class="cls-27"><g class="cls-28"><g class="cls-28"><path class="cls-6" d="M1047.15,236a74.83,74.83,0,1,1-74.83-74.83A74.82,74.82,0,0,1,1047.15,236" transform="translate(-32.32 -30.56)"/></g></g></g><path class="cls-6" d="M972.32,236V161.17c-35.71-.53-57,26.33-57,26.33s-20.85,20.17-17.85,54.32Z" transform="translate(-32.32 -30.56)"/></g><text class="cls-29" transform="translate(885.97 188.36)">15,8%</text><text class="cls-29" transform="translate(922.81 233.11)"><tspan class="cls-30">8</tspan><tspan x="9.32" y="0">4.2%</tspan></text><text class="cls-10" transform="translate(872.88 21.18)"><tspan class="cls-31">A</tspan><tspan x="12.63" y="0">dve</tspan><tspan class="cls-32" x="45.62" y="0">r</tspan><tspan x="54" y="0">tenties per host</tspan></text><text class="cls-10" transform="translate(1407.83 15.81)">Duurste met Airbnb</text><g class="cls-3"><g class="cls-27"><g class="cls-33"><rect class="cls-34" x="1042.3" y="157.38" width="29.8" height="10.94"/></g></g><g class="cls-27"><g class="cls-33"><rect class="cls-6" x="1042.3" y="157.38" width="29.8" height="10.94"/></g></g><g class="cls-27"><g class="cls-35"><rect class="cls-6" x="1042.3" y="222.64" width="29.8" height="10.94"/></g></g><g class="cls-27"><g class="cls-35"><rect class="cls-6" x="1042.3" y="222.64" width="29.8" height="10.94"/></g></g></g><text class="cls-36" transform="translate(1042.3 185.86)">1 accomm<tspan class="cls-37" x="43.11" y="0">o</tspan><tspan class="cls-38" x="48.38" y="0">daties </tspan></text><text class="cls-36" transform="translate(1042.3 197.58)">per host be<tspan class="cls-39" x="49.32" y="0">s</tspan><tspan class="cls-38" x="53.8" y="0">chikbaar</tspan></text><text class="cls-36" transform="translate(1042.3 253.5)">Mee<tspan class="cls-40" x="18.67" y="0">r</tspan><tspan x="21.85" y="0">dere accomm</tspan><tspan class="cls-39" x="80.07" y="0">o</tspan><tspan x="85.35" y="0">daties </tspan></text><text class="cls-36" transform="translate(1042.3 265.22)">per host be<tspan class="cls-37" x="49.32" y="0">s</tspan><tspan class="cls-38" x="53.79" y="0">chikbaar</tspan></text><text class="cls-15" transform="translate(896.78 73.85)">15.496</text><polygon class="cls-25" points="873.12 56.38 875.11 56.38 875.11 54.75 877.09 54.75 877.09 52.95 878.81 52.95 878.81 50.87 882.04 50.87 882.04 52.88 883.84 52.86 883.84 54.82 885.63 54.79 885.63 56.66 887.49 56.66 887.53 90.26 881.55 90.26 873.12 90.26 873.12 56.38"/><polygon class="cls-25" points="881.61 82.89 885.34 82.89 885.34 90.26 881.55 90.26 881.61 82.89"/><rect class="cls-25" x="875.34" y="72.59" width="4.05" height="7.67"/><rect class="cls-25" x="875.34" y="61.81" width="4.05" height="7.67"/><rect class="cls-25" x="881.42" y="72.59" width="4.05" height="7.67"/><rect class="cls-25" x="881.42" y="61.81" width="4.05" height="7.67"/><text class="cls-14" transform="translate(900.35 91.58)">Accomm<tspan class="cls-17" x="54.72" y="0">o</tspan><tspan x="62.64" y="0">daties</tspan></text><text class="cls-41" transform="translate(1429.74 144.72)">€803</text><text class="cls-14" transform="translate(1429.74 159.46)">gemiddeld </text><text class="cls-14" transform="translate(1429.74 177.03)">maandinkomen</text><text class="cls-14" transform="translate(1429.74 194.6)">per host </text><text class="cls-14" transform="translate(1487.81 194.6)"> </text><text class="cls-41" transform="translate(1429.74 76.1)">€42.000</text><text class="cls-14" transform="translate(1429.74 90.84)">ve<tspan class="cls-42" x="14.64" y="0">r</tspan><tspan class="cls-43" x="19.42" y="0">dient host </tspan></text><text class="cls-14" transform="translate(1429.74 108.4)">Alexand<tspan class="cls-42" x="51.45" y="0">r</tspan><tspan x="56.23" y="0">a </tspan></text><text class="cls-14" transform="translate(1498.17 108.4)">per maand </text><text class="cls-14" transform="translate(1572.16 108.4)"> </text><polygon class="cls-12" points="1697.76 126.87 1715.13 144.45 1732.23 127.55 1732.23 148.72 1762.79 148.72 1762.79 161.52 1740.77 161.52 1740.77 174.83 1745.38 174.83 1745.72 321.69 1684.95 321.69 1684.95 174.66 1689.9 174.83 1689.73 161.69 1667.48 161.52 1667.48 148.55 1698.27 148.55 1697.76 126.87"/><polygon class="cls-12" points="1709.63 201.63 1711.66 199.67 1715.13 202.74 1718.16 199.67 1720.32 201.88 1717.37 204.83 1720.53 208.08 1718.41 210.28 1715.37 207 1711.96 210.12 1710.08 208.16 1713.04 204.98 1709.63 201.63"/><polygon class="cls-12" points="1709.63 189.34 1711.66 187.39 1715.13 190.45 1718.16 187.39 1720.32 189.59 1717.37 192.55 1720.53 195.79 1718.41 198 1715.37 194.71 1711.96 197.83 1710.08 195.88 1713.04 192.69 1709.63 189.34"/><polygon class="cls-12" points="1709.63 177.06 1711.66 175.1 1715.13 178.17 1718.16 175.1 1720.32 177.31 1717.37 180.27 1720.53 183.51 1718.41 185.72 1715.37 182.43 1711.96 185.55 1710.08 183.6 1713.04 180.41 1709.63 177.06"/><text class="cls-44" transform="translate(1676.48 296.72) rotate(-90)">Hotel</text><text class="cls-45" transform="translate(1755.1 294.3)">Overhoeksplein 1</text><text class="cls-45" transform="translate(1755.1 304.31)">1031 KS Amsterdam</text><g class="cls-3"><path class="cls-6" d="M1581.35,244.63c0,6.06,0,12.13,0,18.19a4.76,4.76,0,0,0,1.12,3.51,4.71,4.71,0,0,0,3.82,1.25c12.85-.1,25.71.32,38.57-.21a3.69,3.69,0,0,0,2.57-1.07l54.71-54.72a1.88,1.88,0,0,0,0-2.75q-21-21-42-42a1.88,1.88,0,0,0-2.84,0q-27.36,27.36-54.72,54.71a3,3,0,0,0-.81,1.36,15.1,15.1,0,0,0-.43,3.77c-.07,6,0,12,0,18" transform="translate(-32.32 -30.56)"/><path class="cls-46" d="M1581.35,244.63c0,6.06,0,12.13,0,18.19a4.76,4.76,0,0,0,1.12,3.51,4.71,4.71,0,0,0,3.82,1.25c12.85-.1,25.71.32,38.57-.21a3.69,3.69,0,0,0,2.57-1.07l54.71-54.72a1.88,1.88,0,0,0,0-2.75q-21-21-42-42a1.88,1.88,0,0,0-2.84,0q-27.36,27.36-54.72,54.71a3,3,0,0,0-.81,1.36,15.1,15.1,0,0,0-.43,3.77C1581.31,232.66,1581.35,238.64,1581.35,244.63Z" transform="translate(-32.32 -30.56)"/><path class="cls-7" d="M1593.64,250.56a4.75,4.75,0,0,0,4.67,4.8,4.72,4.72,0,1,0,0-9.44c-2.83.12-4.86,2.74-4.62,4.64" transform="translate(-32.32 -30.56)"/><path class="cls-6" d="M1597.11,255.16c1.66,4.38,3.1,9.63.12,13.79s-8.69,3.64-13,2.5A23,23,0,0,1,1567.71,254a15.65,15.65,0,0,1-.33-5.86c.36-2,1.1-3.21,3.2-3.47a4.25,4.25,0,0,1,4.38,2c1.77,2.5,2.07,6.95-.87,8.63a9,9,0,0,1-6.65.67c-9-2.28-11-12.45-11.77-20.38-.07-.78-1.3-.79-1.22,0,.81,8.44,2.93,18.69,12.27,21.44,3.29,1,7.43.59,9.81-2.15s1-7.22-1.12-9.62-5.92-3.1-8-.42-1.45,7.27-.64,10.4a24.24,24.24,0,0,0,19.54,17.83c4.25.68,9.2.4,11.94-3.4,3.22-4.46,1.85-10.16.06-14.88-.28-.73-1.46-.42-1.18.32" transform="translate(-32.32 -30.56)"/></g><text class="cls-47" transform="translate(1576.37 214.3) rotate(-41.26)">€2.000</text><text class="cls-48" transform="translate(1582.02 220.75) rotate(-41.26)">per nacht</text><polygon class="cls-12" points="1490.47 209.41 1496.1 209.41 1496.1 204.81 1501.72 204.81 1501.72 199.69 1506.59 199.69 1506.59 193.81 1515.74 193.81 1515.74 199.5 1520.81 199.43 1520.81 204.99 1525.89 204.92 1525.89 210.2 1531.17 210.2 1531.27 317.13 1514.35 317.13 1490.47 317.13 1490.47 209.41"/><polygon class="cls-12" points="1514.52 284.48 1525.06 284.48 1525.06 317.13 1514.35 317.13 1514.52 284.48"/><rect class="cls-12" x="1496.78" y="255.32" width="11.46" height="21.71"/><rect class="cls-12" x="1496.78" y="224.78" width="11.46" height="21.71"/><rect class="cls-12" x="1513.98" y="255.32" width="11.46" height="21.71"/><rect class="cls-12" x="1513.98" y="224.78" width="11.46" height="21.71"/><text class="cls-44" transform="translate(1485.64 305.33) rotate(-90)">Airbnb</text><text class="cls-44" transform="translate(1544.98 282.62)">Keizers House</text><text class="cls-45" transform="translate(1544.98 292.63)">Keize</text><text class="cls-45" transform="translate(1565.02 292.63)">r</text><text class="cls-45" transform="translate(1567.97 292.63)">sg</text><text class="cls-45" transform="translate(1576.57 292.63)">r</text><text class="cls-45" transform="translate(1579.42 292.63)">acht 770 </text><text class="cls-45" transform="translate(1544.98 302.64)">1017 EB Amste</text><text class="cls-45" transform="translate(1598.73 302.64)">r</text><text class="cls-45" transform="translate(1601.61 302.64)">dam</text><text class="cls-44" transform="translate(1755.09 284.22)">Sir Adam toren</text><text class="cls-49" transform="translate(1704.58 68.77) rotate(21.56)">€10.000</text><text class="cls-50" transform="matrix(0.93, 0.37, -0.37, 0.93, 1701.95, 75.45)">per nacht</text><g class="cls-3"><path class="cls-6" d="M1787.14,178.35c1.85,5.64,4.6,12,10.88,13.66,6.1,1.65,11.53-3.42,14.88-8a29.33,29.33,0,0,0,2.54-30.48,19.52,19.52,0,0,0-4.36-6c-1.95-1.69-3.65-2.28-5.95-.84a5.46,5.46,0,0,0-2.73,5.52c.24,3.88,3.49,8.49,7.75,7.78a11.61,11.61,0,0,0,7.14-4.69c7.16-9.53,1-21.13-4.57-29.53-.55-.83.66-1.82,1.21-1,5.94,9,12,20.76,4.93,31-2.5,3.61-6.92,6.56-11.47,5.79-4.38-.74-6.76-6.3-6.57-10.37s3.42-7.82,7.65-6.87,7.23,6,8.93,9.71a30.91,30.91,0,0,1-5.18,33.28c-3.68,4.09-8.82,7.8-14.57,6.27-6.77-1.79-10-8.51-11.94-14.59-.31-.94,1.12-1.58,1.43-.63" transform="translate(-32.32 -30.56)"/></g></g></g></g></g></g></g></svg>